# xmcd
#
# Track frame offsets: 
#        150
#        13096
#        30531
#        43563
#        57388
#        73489
#        88079
#        105514
#        119497
#        134346
#        148756
#        162931
#        179392
#
# Disc length: 2650 seconds
#
# Revision: 0
# Processed by: cddbd v1.5.2PL0 Copyright (c) Steve Scherf et al.
# Submitted via: ExactAudioCopyFreeDBPlugin 1.0
#
DISCID=bd0a580d
DTITLE=Guitar Lightnin' Lee - Just an Ol' G
DYEAR=1900
DGENRE=Blues
TTITLE0=Mississippi Alabama Bound
TTITLE1=When I First Met You
TTITLE2=Missing Momma
TTITLE3=Amsterdam
TTITLE4=Just an Ol' G
TTITLE5=Honest I Do (Jimmy Reed)
TTITLE6=Blue Rain
TTITLE7=She Means Trouble
TTITLE8=Mathilda
TTITLE9=I Love Louisiana
TTITLE10=Goodnight Officer
TTITLE11=Mean Little Woman
TTITLE12=Human Fly (The Cramps)
EXTD=
EXTT0=
EXTT1=
EXTT2=
EXTT3=
EXTT4=
EXTT5=
EXTT6=
EXTT7=
EXTT8=
EXTT9=
EXTT10=
EXTT11=
EXTT12=
PLAYORDER=
